<?xml version="1.0" standalone="no"?>
<!DOCTYPE svg PUBLIC "-//W3C//DTD SVG 20010904//EN"
 "http://www.w3.org/TR/2001/REC-SVG-20010904/DTD/svg10.dtd">
<svg version="1.0" xmlns="http://www.w3.org/2000/svg"
 width="400.000000pt" height="400.000000pt" viewBox="0 0 400.000000 400.000000"
 preserveAspectRatio="xMidYMid meet">
<metadata>
Created by potrace 1.14, written by Peter Selinger 2001-2017
</metadata>
<g transform="translate(0.000000,400.000000) scale(0.100000,-0.100000)"
fill="#000000" stroke="none">
<path d="M1809 3956 c-2 -2 -34 -6 -71 -10 -304 -26 -650 -167 -968 -393 -57
-41 -290 -262 -290 -276 0 -3 -12 -19 -27 -35 -103 -111 -252 -373 -328 -577
-20 -55 -38 -106 -40 -115 -2 -8 -12 -51 -23 -95 -12 -44 -24 -100 -28 -125
-3 -25 -8 -58 -11 -75 -9 -62 -11 -433 -2 -495 5 -36 11 -81 14 -100 3 -19 16
-80 30 -135 95 -397 332 -778 640 -1032 50 -40 97 -80 106 -88 9 -8 20 -15 26
-15 6 0 16 -6 22 -14 13 -16 153 -97 248 -145 157 -78 379 -151 541 -176 23
-4 54 -9 70 -12 50 -9 446 -11 502 -3 30 5 71 11 90 13 259 36 583 170 835
345 109 77 302 257 381 357 21 28 42 52 45 55 3 3 8 10 10 15 2 6 29 48 60 95
157 236 257 502 304 805 13 91 14 450 0 545 -47 334 -202 691 -415 961 -42 53
-217 230 -280 282 -160 134 -423 278 -635 349 -205 68 -346 90 -596 94 -113 2
-208 2 -210 0z m381 -219 c8 -3 33 -8 55 -11 77 -9 193 -37 286 -67 97 -31
379 -166 379 -181 0 -4 5 -8 11 -8 12 0 125 -78 194 -134 67 -54 172 -159 220
-221 22 -27 43 -52 46 -55 14 -12 114 -168 141 -219 16 -30 33 -60 38 -66 30
-36 135 -336 155 -443 3 -18 14 -84 21 -130 10 -59 12 -321 3 -382 -5 -36 -11
-81 -14 -101 -5 -29 -16 -76 -58 -244 -36 -141 -193 -429 -321 -590 -214 -267
-566 -491 -918 -584 -75 -20 -90 -23 -238 -46 -78 -12 -354 -13 -405 -2 -11 2
-42 8 -70 11 -99 14 -283 65 -380 105 -85 35 -205 97 -304 156 -127 77 -308
238 -413 370 -373 469 -488 1049 -317 1610 62 201 184 425 336 617 33 40 177
183 217 213 22 17 51 39 65 51 87 71 273 176 401 229 155 63 319 105 475 121
33 4 62 8 64 10 6 5 314 -3 331 -9z"/>
<path d="M635 2523 c-64 -9 -135 -35 -173 -63 -85 -61 -123 -141 -124 -261 -1
-181 105 -277 357 -325 54 -10 123 -29 153 -41 83 -35 88 -141 9 -189 -26 -16
-51 -19 -137 -19 -115 1 -201 21 -311 75 -33 15 -60 28 -60 27 -1 -1 -2 -53
-3 -116 -2 -132 -16 -116 144 -157 116 -30 311 -40 410 -21 196 38 284 150
276 352 -4 96 -21 140 -75 193 -53 51 -135 84 -297 118 -157 32 -200 52 -212
97 -12 43 6 87 45 110 71 41 247 31 396 -23 l77 -29 0 114 0 113 -72 15 c-148
32 -309 44 -403 30z"/>
<path d="M1800 2523 c-51 -8 -156 -45 -199 -70 -99 -57 -185 -177 -217 -303
-20 -81 -24 -236 -7 -320 42 -206 195 -360 395 -397 53 -9 229 -10 284 -1 204
34 364 200 398 413 42 266 -40 492 -219 602 -88 55 -166 75 -295 78 -63 1
-126 0 -140 -2z m227 -217 c97 -50 144 -147 149 -306 5 -150 -23 -249 -88
-312 -51 -50 -86 -63 -173 -63 -69 0 -87 4 -126 27 -91 53 -131 142 -135 304
-5 166 30 263 118 333 55 42 189 52 255 17z"/>
<path d="M2675 1979 l0 -534 265 1 c205 1 282 5 340 17 283 62 438 299 397
607 -29 210 -177 367 -392 416 -50 11 -146 17 -340 21 l-270 5 0 -533z m536
296 c58 -20 124 -75 148 -124 57 -111 48 -286 -18 -378 -59 -82 -133 -113
-283 -121 l-108 -5 0 328 0 328 108 -6 c59 -3 128 -13 153 -22z"/>
</g>
</svg>
